<?xml version="1.0" encoding="UTF-8" standalone="yes"?>
<svg xmlns="http://www.w3.org/2000/svg" height="452" width="452">
<script type="text/ecmascript">
      <![CDATA[
        var shown = 1;
        function click() {
             var seq = document.getElementById("seq");
             if (shown==1) {
               seq.setAttribute("style", "visibility: hidden");
               shown = 0;
             } else {
               seq.setAttribute("style", "visibility: visible");
               shown = 1;
             }
         }
        ]]>
</script>
  <rect style="stroke: white; fill: white" height="452" x="0" y="0" width="452" onclick="click(evt)" />
  <g transform="scale(0.877904,0.877904) translate(184.750946,115.270859)">
    <polyline style="stroke: black; fill: none; stroke-width: 1.5" id="outline" points="
      16.127,-41.320
      5.210,-38.755
      -5.143,-34.450
      -14.656,-28.522
      -24.842,-39.533
      -35.028,-50.544
      -45.214,-61.554
      -55.401,-72.565
      -59.093,-87.950
      -73.415,-92.038
      -79.733,-107.771
      -96.600,-106.055
      -99.621,-89.373
      -84.426,-81.852
      -81.463,-67.255
      -66.412,-62.379
      -56.225,-51.368
      -46.039,-40.357
      -35.853,-29.346
      -25.666,-18.336
      -36.331,-1.835
      -41.895,17.020
      -41.898,36.692
      -36.332,55.574
      -25.644,72.121
      -10.703,84.977
      7.278,93.086
      26.830,95.779
      46.359,92.828
      52.260,106.618
      58.162,120.409
      64.063,134.199
      69.965,147.989
      68.924,150.268
      68.676,153.082
      69.419,156.150
      71.252,159.130
      74.159,161.649
      78.000,163.344
      85.967,176.054
      84.058,187.655
      90.456,197.519
      101.828,200.505
      103.092,216.276
      116.608,222.534
      124.966,234.989
      133.324,247.445
      141.682,259.901
      150.040,272.357
      158.397,284.813
      155.554,300.128
      164.207,312.641
      178.825,315.257
      187.183,327.713
      195.541,340.169
      196.805,355.939
      210.322,362.197
      218.679,374.653
      222.484,391.174
      239.413,392.092
      244.981,376.079
      231.135,366.295
      222.777,353.839
      222.111,338.959
      207.997,331.811
      199.639,319.355
      191.281,306.899
      194.402,292.380
      186.103,279.629
      170.853,276.455
      162.495,263.999
      154.138,251.543
      145.780,239.087
      137.422,226.632
      129.064,214.176
      128.398,199.296
      114.284,192.148
      113.664,175.457
      98.677,168.088
      90.710,155.378
      83.755,142.088
      77.854,128.298
      71.952,114.507
      66.051,100.717
      60.149,86.927
      69.474,80.594
      77.643,72.833
      84.440,63.849
      89.685,53.883
      93.238,43.200
      95.008,32.085
      94.946,20.833
      93.058,9.745
      89.392,-0.886
      84.049,-10.777
      77.172,-19.665
      68.943,-27.315
      59.583,-33.524
      49.341,-38.126
      38.491,-41.002
    " />
    <g style="stroke: black; stroke-width: 1; fill: none;" id="pairs">
      <line id="4,20" x1="-14.65555" y1="-28.52185" x2="-25.66643" y2="-18.33554" />
      <line id="5,19" x1="-24.84184" y1="-39.53271" x2="-35.85272" y2="-29.34644" />
      <line id="6,18" x1="-35.02814" y1="-50.54361" x2="-46.03902" y2="-40.35730" />
      <line id="7,17" x1="-45.21443" y1="-61.55447" x2="-56.22531" y2="-51.36819" />
      <line id="8,16" x1="-55.40072" y1="-72.56537" x2="-66.41161" y2="-62.37906" />
      <line id="10,14" x1="-73.41515" y1="-92.03806" x2="-84.42603" y2="-81.85175" />
      <line id="29,85" x1="46.35888" y1="92.82811" x2="60.14917" y2="86.92661" />
      <line id="30,84" x1="52.26038" y1="106.61841" x2="66.05068" y2="100.71690" />
      <line id="31,83" x1="58.16189" y1="120.40871" x2="71.95219" y2="114.50720" />
      <line id="32,82" x1="64.06339" y1="134.19901" x2="77.85368" y2="128.29750" />
      <line id="33,81" x1="69.96490" y1="147.98929" x2="83.75519" y2="142.08778" />
      <line id="39,80" x1="78.00042" y1="163.34433" x2="90.71014" y2="155.37796" />
      <line id="40,79" x1="85.96679" y1="176.05405" x2="98.67651" y2="168.08768" />
      <line id="43,77" x1="101.82771" y1="200.50546" x2="114.28352" y2="192.14767" />
      <line id="45,75" x1="116.60841" y1="222.53352" x2="129.06424" y2="214.17575" />
      <line id="46,74" x1="124.96620" y1="234.98935" x2="137.42201" y2="226.63156" />
      <line id="47,73" x1="133.32399" y1="247.44516" x2="145.77980" y2="239.08739" />
      <line id="48,72" x1="141.68176" y1="259.90100" x2="154.13759" y2="251.54321" />
      <line id="49,71" x1="150.03955" y1="272.35681" x2="162.49538" y2="263.99902" />
      <line id="50,70" x1="158.39734" y1="284.81262" x2="170.85315" y2="276.45483" />
      <line id="53,67" x1="178.82539" y1="315.25708" x2="191.28122" y2="306.89929" />
      <line id="54,66" x1="187.18318" y1="327.71292" x2="199.63901" y2="319.35513" />
      <line id="55,65" x1="195.54097" y1="340.16873" x2="207.99678" y2="331.81094" />
      <line id="57,63" x1="210.32167" y1="362.19681" x2="222.77750" y2="353.83902" />
      <line id="58,62" x1="218.67946" y1="374.65262" x2="231.13528" y2="366.29483" />
    </g>
    <g style="font-family: SansSerif" transform="translate(-4.6, 4)" id="seq">
      <text x="16.127" y="-41.320">T</text>
      <text x="5.210" y="-38.755">T</text>
      <text x="-5.143" y="-34.450">G</text>
      <text x="-14.656" y="-28.522">G</text>
      <text x="-24.842" y="-39.533">G</text>
      <text x="-35.028" y="-50.544">G</text>
      <text x="-45.214" y="-61.554">G</text>
      <text x="-55.401" y="-72.565">G</text>
      <text x="-59.093" y="-87.950">A</text>
      <text x="-73.415" y="-92.038">C</text>
      <text x="-79.733" y="-107.771">T</text>
      <text x="-96.600" y="-106.055">G</text>
      <text x="-99.621" y="-89.373">G</text>
      <text x="-84.426" y="-81.852">G</text>
      <text x="-81.463" y="-67.255">G</text>
      <text x="-66.412" y="-62.379">C</text>
      <text x="-56.225" y="-51.368">T</text>
      <text x="-46.039" y="-40.357">C</text>
      <text x="-35.853" y="-29.346">C</text>
      <text x="-25.666" y="-18.336">C</text>
      <text x="-36.331" y="-1.835">A</text>
      <text x="-41.895" y="17.020">T</text>
      <text x="-41.898" y="36.692">T</text>
      <text x="-36.332" y="55.574">C</text>
      <text x="-25.644" y="72.121">G</text>
      <text x="-10.703" y="84.977">T</text>
      <text x="7.278" y="93.086">T</text>
      <text x="26.830" y="95.779">G</text>
      <text x="46.359" y="92.828">C</text>
      <text x="52.260" y="106.618">C</text>
      <text x="58.162" y="120.409">T</text>
      <text x="64.063" y="134.199">T</text>
      <text x="69.965" y="147.989">T</text>
      <text x="68.924" y="150.268">A</text>
      <text x="68.676" y="153.082">T</text>
      <text x="69.419" y="156.150">A</text>
      <text x="71.252" y="159.130">A</text>
      <text x="74.159" y="161.649">A</text>
      <text x="78.000" y="163.344">T</text>
      <text x="85.967" y="176.054">C</text>
      <text x="84.058" y="187.655">C</text>
      <text x="90.456" y="197.519">T</text>
      <text x="101.828" y="200.505">T</text>
      <text x="103.092" y="216.276">G</text>
      <text x="116.608" y="222.534">C</text>
      <text x="124.966" y="234.989">A</text>
      <text x="133.324" y="247.445">A</text>
      <text x="141.682" y="259.901">G</text>
      <text x="150.040" y="272.357">C</text>
      <text x="158.397" y="284.813">C</text>
      <text x="155.554" y="300.128">A</text>
      <text x="164.207" y="312.641">A</text>
      <text x="178.825" y="315.257">T</text>
      <text x="187.183" y="327.713">T</text>
      <text x="195.541" y="340.169">A</text>
      <text x="196.805" y="355.939">A</text>
      <text x="210.322" y="362.197">C</text>
      <text x="218.679" y="374.653">A</text>
      <text x="222.484" y="391.174">G</text>
      <text x="239.413" y="392.092">G</text>
      <text x="244.981" y="376.079">T</text>
      <text x="231.135" y="366.295">T</text>
      <text x="222.777" y="353.839">G</text>
      <text x="222.111" y="338.959">G</text>
      <text x="207.997" y="331.811">T</text>
      <text x="199.639" y="319.355">G</text>
      <text x="191.281" y="306.899">A</text>
      <text x="194.402" y="292.380">G</text>
      <text x="186.103" y="279.629">G</text>
      <text x="170.853" y="276.455">G</text>
      <text x="162.495" y="263.999">G</text>
      <text x="154.138" y="251.543">C</text>
      <text x="145.780" y="239.087">T</text>
      <text x="137.422" y="226.632">T</text>
      <text x="129.064" y="214.176">G</text>
      <text x="128.398" y="199.296">G</text>
      <text x="114.284" y="192.148">G</text>
      <text x="113.664" y="175.457">T</text>
      <text x="98.677" y="168.088">G</text>
      <text x="90.710" y="155.378">A</text>
      <text x="83.755" y="142.088">A</text>
      <text x="77.854" y="128.298">A</text>
      <text x="71.952" y="114.507">A</text>
      <text x="66.051" y="100.717">G</text>
      <text x="60.149" y="86.927">G</text>
      <text x="69.474" y="80.594">T</text>
      <text x="77.643" y="72.833">G</text>
      <text x="84.440" y="63.849">C</text>
      <text x="89.685" y="53.883">T</text>
      <text x="93.238" y="43.200">T</text>
      <text x="95.008" y="32.085">A</text>
      <text x="94.946" y="20.833">A</text>
      <text x="93.058" y="9.745">G</text>
      <text x="89.392" y="-0.886">A</text>
      <text x="84.049" y="-10.777">C</text>
      <text x="77.172" y="-19.665">T</text>
      <text x="68.943" y="-27.315">C</text>
      <text x="59.583" y="-33.524">C</text>
      <text x="49.341" y="-38.126">G</text>
      <text x="38.491" y="-41.002">T</text>
    </g>
  </g>
</svg>
